<svg xmlns="http://www.w3.org/2000/svg" width="104" height="72" viewBox="0 0 104 72"><defs></defs><g transform="translate(4 4)"><g transform="scale(2 2)"><g transform="translate(24 32)"><g transform="scale(1 1)"><path d="M-14 -1 Q-26 1 -24 -6" fill="none" stroke="#1E2A3A" stroke-width="5" stroke-linecap="round" stroke-linejoin="round"/><path d="M-14 -1 Q-26 1 -24 -6" fill="none" stroke="#F4A259" stroke-width="3" stroke-linecap="round" stroke-linejoin="round"/><ellipse cx="-8" cy="-3" rx="8" ry="8" fill="#F4A259"/><ellipse cx="-8" cy="-3" rx="8" ry="8" fill="none" stroke="#1E2A3A" stroke-width="1.6" stroke-linecap="round" stroke-linejoin="round"/><line x1="-10" y1="1" x2="-5" y2="-1" fill="none" stroke="#1E2A3A" stroke-width="6.5" stroke-linecap="round" stroke-linejoin="round"/><line x1="-10" y1="1" x2="-5" y2="-1" fill="none" stroke="#F4A259" stroke-width="4.2" stroke-linecap="round" stroke-linejoin="round"/><ellipse cx="-5" cy="-1.5" rx="3.5" ry="2" fill="#F4A259"/><ellipse cx="-5" cy="-1.5" rx="3.5" ry="2" fill="none" stroke="#1E2A3A" stroke-width="1.2" stroke-linecap="round" stroke-linejoin="round"/><line x1="6" y1="-5" x2="5" y2="-1" fill="none" stroke="#1E2A3A" stroke-width="6.5" stroke-linecap="round" stroke-linejoin="round"/><line x1="6" y1="-5" x2="5" y2="-1" fill="none" stroke="#F4A259" stroke-width="4.2" stroke-linecap="round" stroke-linejoin="round"/><ellipse cx="5" cy="-1.5" rx="3.5" ry="2" fill="#F4A259"/><ellipse cx="5" cy="-1.5" rx="3.5" ry="2" fill="none" stroke="#1E2A3A" stroke-width="1.2" stroke-linecap="round" stroke-linejoin="round"/><line x1="11" y1="-5" x2="11" y2="-1" fill="none" stroke="#1E2A3A" stroke-width="6.5" stroke-linecap="round" stroke-linejoin="round"/><line x1="11" y1="-5" x2="11" y2="-1" fill="none" stroke="#F4A259" stroke-width="4.2" stroke-linecap="round" stroke-linejoin="round"/><ellipse cx="11" cy="-1.5" rx="3.5" ry="2" fill="#F4A259"/><ellipse cx="11" cy="-1.5" rx="3.5" ry="2" fill="none" stroke="#1E2A3A" stroke-width="1.2" stroke-linecap="round" stroke-linejoin="round"/><path d="M-8 1 Q-6 -21 12 -13 Q16 -1 8 3 Z" fill="#F4A259"/><path d="M-8 1 Q-6 -21 12 -13 Q16 -1 8 3 Z" fill="none" stroke="#1E2A3A" stroke-width="1.6" stroke-linecap="round" stroke-linejoin="round"/><line x1="-2" y1="-9" x2="4" y2="-10" fill="none" stroke="#A0623C" stroke-width="2" stroke-linecap="round" stroke-linejoin="round" stroke-opacity="0.55"/><circle cx="12" cy="-23" r="9" fill="#F4A259"/><path d="M5 -27 L7 -36 L12 -30 Z" fill="#F4A259"/><path d="M5 -27 L7 -36 L12 -30 Z" fill="none" stroke="#1E2A3A" stroke-width="1.2" stroke-linecap="round" stroke-linejoin="round"/><path d="M14 -31 L18 -36 L20 -27 Z" fill="#F4A259"/><path d="M14 -31 L18 -36 L20 -27 Z" fill="none" stroke="#1E2A3A" stroke-width="1.2" stroke-linecap="round" stroke-linejoin="round"/><path d="M6.5 -28 L7.5 -33.5 L11 -30 Z" fill="#FF7AA2"/><circle cx="12" cy="-23" r="9" fill="none" stroke="#1E2A3A" stroke-width="1.6" stroke-linecap="round" stroke-linejoin="round"/><circle cx="9.5" cy="-24" r="2.4" fill="#FFFFFF"/><circle cx="9.5" cy="-24" r="2.4" fill="none" stroke="#1E2A3A" stroke-width="1" stroke-linecap="round" stroke-linejoin="round"/><circle cx="10.1" cy="-23.6" r="1.44" fill="#1E2A3A"/><circle cx="15.5" cy="-24" r="2.4" fill="#FFFFFF"/><circle cx="15.5" cy="-24" r="2.4" fill="none" stroke="#1E2A3A" stroke-width="1" stroke-linecap="round" stroke-linejoin="round"/><circle cx="16.1" cy="-23.6" r="1.44" fill="#1E2A3A"/><circle cx="17.5" cy="-19.5" r="1.4" fill="#FF7AA2"/><path d="M15 -18 Q17.5 -16 20 -18" fill="none" stroke="#1E2A3A" stroke-width="1" stroke-linecap="round" stroke-linejoin="round"/><line x1="19" y1="-20" x2="25" y2="-22" fill="none" stroke="#1E2A3A" stroke-width="1" stroke-linecap="round" stroke-linejoin="round"/><line x1="19" y1="-19" x2="25" y2="-18" fill="none" stroke="#1E2A3A" stroke-width="1" stroke-linecap="round" stroke-linejoin="round"/></g></g></g></g></svg>