<svg xmlns="http://www.w3.org/2000/svg" width="72" height="72" viewBox="0 0 72 72"><defs></defs><g transform="translate(4 4)"><g transform="scale(2 2)"><rect x="2" y="6" width="9" height="20" rx="2.5" fill="#E84855"/><rect x="3" y="12" width="7" height="2.2" fill="#B8323D"/><rect x="3" y="19" width="7" height="2.2" fill="#B8323D"/><rect x="4" y="8" width="1.5" height="16" fill="#FFFFFF" fill-opacity="0.25"/><rect x="2" y="6" width="9" height="20" rx="2.5" fill="none" stroke="#1E2A3A" stroke-width="1.6" stroke-linecap="round" stroke-linejoin="round"/><rect x="11" y="6" width="9" height="20" rx="2.5" fill="#E84855"/><rect x="12" y="12" width="7" height="2.2" fill="#B8323D"/><rect x="12" y="19" width="7" height="2.2" fill="#B8323D"/><rect x="13" y="8" width="1.5" height="16" fill="#FFFFFF" fill-opacity="0.25"/><rect x="11" y="6" width="9" height="20" rx="2.5" fill="none" stroke="#1E2A3A" stroke-width="1.6" stroke-linecap="round" stroke-linejoin="round"/><rect x="20" y="6" width="9" height="20" rx="2.5" fill="#E84855"/><rect x="21" y="12" width="7" height="2.2" fill="#B8323D"/><rect x="21" y="19" width="7" height="2.2" fill="#B8323D"/><rect x="22" y="8" width="1.5" height="16" fill="#FFFFFF" fill-opacity="0.25"/><rect x="20" y="6" width="9" height="20" rx="2.5" fill="none" stroke="#1E2A3A" stroke-width="1.6" stroke-linecap="round" stroke-linejoin="round"/><rect x="1" y="14" width="29" height="4" rx="1" fill="#5C6672"/><rect x="1" y="14" width="29" height="4" rx="1" fill="none" stroke="#1E2A3A" stroke-width="1" stroke-linecap="round" stroke-linejoin="round"/><path d="M16 6 Q20 -2 16 -6" fill="none" stroke="#1E2A3A" stroke-width="2" stroke-linecap="round" stroke-linejoin="round"/></g></g></svg>